<?xml version="1.0" encoding="UTF-8"?>
<svg xmlns="http://www.w3.org/2000/svg" xmlns:xlink="http://www.w3.org/1999/xlink" width="200px" height="200px" viewBox="0 0 200 200" version="1.1">
<g id="surface1">
<path style=" stroke:none;fill-rule:nonzero;fill:rgb(0%,0%,0%);fill-opacity:1;" d="M 175 75 L 25 75 C 11.25 75 0 86.25 0 100 C 0 113.75 11.25 125 25 125 L 175 125 C 188.75 125 200 113.75 200 100 C 200 86.25 188.75 75 175 75 Z M 25 112.5 C 18.125 112.5 12.5 106.875 12.5 100 C 12.5 93.125 18.125 87.5 25 87.5 L 87.5 87.5 C 94.375 87.5 100 93.125 100 100 C 100 106.875 94.375 112.5 87.5 112.5 Z M 25 112.5 "/>
</g>
</svg>
