<?xml version="1.0" encoding="UTF-8"?>
<svg xmlns="http://www.w3.org/2000/svg" xmlns:xlink="http://www.w3.org/1999/xlink" width="200px" height="200px" viewBox="0 0 200 200" version="1.1">
<g id="surface1">
<path style=" stroke:none;fill-rule:evenodd;fill:rgb(0%,0%,0%);fill-opacity:1;" d="M 30 100 C 29.992188 77.320312 40.972656 56.042969 59.464844 42.910156 C 77.953125 29.777344 101.660156 26.414062 123.070312 33.890625 C 128.285156 35.707031 133.988281 32.953125 135.804688 27.734375 C 137.621094 22.519531 134.867188 16.816406 129.648438 15 C 91.796875 1.792969 49.769531 15.21875 26.582031 47.925781 C 3.394531 80.632812 4.636719 124.730469 29.628906 156.082031 C 54.621094 187.429688 97.335938 198.46875 134.386719 183.148438 C 171.4375 167.832031 193.890625 129.855469 189.449219 90.011719 C 188.84375 84.519531 183.898438 80.5625 178.410156 81.171875 C 172.921875 81.777344 168.960938 86.71875 169.570312 92.210938 C 172.441406 117.980469 160.828125 143.226562 139.394531 157.820312 C 117.960938 172.414062 90.214844 173.960938 67.289062 161.84375 C 44.363281 149.726562 30.015625 125.929688 30 100 Z M 177.5 46.621094 C 181.15625 42.476562 180.761719 36.15625 176.621094 32.5 C 172.476562 28.84375 166.15625 29.238281 162.5 33.378906 L 98.148438 106.179688 L 66.320312 80.25 C 62.039062 76.757812 55.742188 77.398438 52.25 81.679688 C 48.757812 85.960938 49.398438 92.257812 53.679688 95.75 L 92.96875 127.75 C 97.128906 131.132812 103.21875 130.636719 106.769531 126.621094 L 177.488281 46.621094 Z M 177.5 46.621094 "/>
</g>
</svg>
